<?xml version="1.0" encoding="UTF-8"?>
<svg xmlns="http://www.w3.org/2000/svg" width="1320" height="620" viewBox="0 0 1320 620" role="img" aria-labelledby="title desc">
  <title id="title">AegisOps Autopilot Architecture</title>
  <desc id="desc">Architecture diagram showing incident intake, memory, Qwen Cloud reasoning, scoped tools, human approval, remediation, frontend, OpenAPI, MCP, and Alibaba Cloud proof runtime.</desc>
  <defs>
    <marker id="arrow" markerWidth="12" markerHeight="12" refX="10" refY="6" orient="auto" markerUnits="strokeWidth">
      <path d="M2,2 L10,6 L2,10 Z" fill="#64748b"/>
    </marker>
    <filter id="shadow" x="-10%" y="-10%" width="120%" height="120%">
      <feDropShadow dx="0" dy="2" stdDeviation="3" flood-color="#0f172a" flood-opacity="0.12"/>
    </filter>
  </defs>
  <rect width="1320" height="620" fill="#f8fafc"/>
  <text x="48" y="58" font-size="30" font-weight="800" fill="#0f172a">AegisOps Autopilot Architecture</text>
  <text x="48" y="86" font-size="15" fill="#475569">Track 4 end-to-end incident workflow: Qwen Cloud reasoning, scoped tools, human checkpoint, Alibaba deployment proof.</text>
  <g>
<line x1="258" y1="157" x2="334" y2="161" stroke="#64748b" stroke-width="2.1" stroke-opacity="0.62" marker-end="url(#arrow)"/>
<line x1="258" y1="291" x2="334" y2="161" stroke="#64748b" stroke-width="2.1" stroke-opacity="0.62" marker-end="url(#arrow)"/>
<line x1="584" y1="161" x2="660" y2="140" stroke="#0f766e" stroke-width="2.1" stroke-opacity="0.62" marker-end="url(#arrow)"/>
<line x1="799" y1="188" x2="799" y2="244" stroke="#0f766e" stroke-width="2.1" stroke-opacity="0.62" marker-end="url(#arrow)"/>
<line x1="660" y1="292" x2="584" y2="309" stroke="#64748b" stroke-width="2.1" stroke-opacity="0.62" marker-end="url(#arrow)"/>
<line x1="459" y1="206" x2="459" y2="264" stroke="#64748b" stroke-width="2.1" stroke-opacity="0.62" marker-end="url(#arrow)"/>
<line x1="459" y1="354" x2="459" y2="430" stroke="#dc2626" stroke-width="2.1" stroke-opacity="0.62" marker-end="url(#arrow)"/>
<line x1="584" y1="475" x2="660" y2="475" stroke="#d97706" stroke-width="2.1" stroke-opacity="0.62" marker-end="url(#arrow)"/>
<line x1="660" y1="475" x2="258" y2="291" stroke="#10b981" stroke-width="2.1" stroke-opacity="0.62" marker-end="url(#arrow)"/>
<line x1="584" y1="161" x2="1014" y2="161" stroke="#64748b" stroke-width="2.1" stroke-opacity="0.62" marker-end="url(#arrow)"/>
<line x1="938" y1="292" x2="1014" y2="309" stroke="#64748b" stroke-width="2.1" stroke-opacity="0.62" marker-end="url(#arrow)"/>
<line x1="1014" y1="475" x2="584" y2="161" stroke="#e11d48" stroke-width="2.1" stroke-opacity="0.62" marker-end="url(#arrow)"/>
<line x1="1014" y1="475" x2="938" y2="140" stroke="#e11d48" stroke-width="2.1" stroke-opacity="0.62" marker-end="url(#arrow)"/>
  </g>
  <g filter="url(#shadow)">
<rect x="48" y="116" width="210" height="82" rx="8" fill="#fff7ed" stroke="#f97316" stroke-width="2"/>
<text x="66" y="150" font-size="18" font-weight="700" fill="#111827">Ambiguous incident alert</text>
<text x="66" y="178" font-size="13" fill="#334155">Reliability, privacy, billing risk</text>
<rect x="48" y="250" width="210" height="82" rx="8" fill="#ecfdf5" stroke="#10b981" stroke-width="2"/>
<text x="66" y="284" font-size="18" font-weight="700" fill="#111827">Persistent memory store</text>
<text x="66" y="312" font-size="13" fill="#334155">Lessons, recency, priority, recall</text>
<rect x="334" y="116" width="250" height="90" rx="8" fill="#eff6ff" stroke="#2563eb" stroke-width="2"/>
<text x="352" y="150" font-size="18" font-weight="700" fill="#111827">Node.js Autopilot API</text>
<text x="352" y="178" font-size="13" fill="#334155">Workflow state, approval gates, audit trail</text>
<rect x="660" y="92" width="278" height="96" rx="8" fill="#f0fdfa" stroke="#0f766e" stroke-width="2"/>
<text x="678" y="126" font-size="18" font-weight="700" fill="#111827">Qwen Cloud reasoning</text>
<text x="678" y="154" font-size="13" fill="#334155">OpenAI-compatible chat + Function Calling</text>
<rect x="660" y="244" width="278" height="96" rx="8" fill="#f8fafc" stroke="#475569" stroke-width="2"/>
<text x="678" y="278" font-size="18" font-weight="700" fill="#111827">Scoped tool registry</text>
<text x="678" y="306" font-size="13" fill="#334155">Logs, metrics, changes, policy, dry run</text>
<rect x="334" y="264" width="250" height="90" rx="8" fill="#fef2f2" stroke="#dc2626" stroke-width="2"/>
<text x="352" y="298" font-size="18" font-weight="700" fill="#111827">Agent council</text>
<text x="352" y="326" font-size="13" fill="#334155">SRE, security, finance, release review</text>
<rect x="334" y="430" width="250" height="90" rx="8" fill="#fffbeb" stroke="#d97706" stroke-width="2"/>
<text x="352" y="464" font-size="18" font-weight="700" fill="#111827">Human approval checkpoint</text>
<text x="352" y="492" font-size="13" fill="#334155">Risk score blocks unsafe mutation</text>
<rect x="660" y="430" width="278" height="90" rx="8" fill="#f5f3ff" stroke="#7c3aed" stroke-width="2"/>
<text x="678" y="464" font-size="18" font-weight="700" fill="#111827">Reversible remediation</text>
<text x="678" y="492" font-size="13" fill="#334155">Dry-run first, then verify recovery</text>
<rect x="1014" y="116" width="250" height="90" rx="8" fill="#fdf2f8" stroke="#db2777" stroke-width="2"/>
<text x="1032" y="150" font-size="18" font-weight="700" fill="#111827">React judge dashboard</text>
<text x="1032" y="178" font-size="13" fill="#334155">Visible rubric evidence and workflow trace</text>
<rect x="1014" y="264" width="250" height="90" rx="8" fill="#f0f9ff" stroke="#0284c7" stroke-width="2"/>
<text x="1032" y="298" font-size="18" font-weight="700" fill="#111827">OpenAPI + MCP surfaces</text>
<text x="1032" y="326" font-size="13" fill="#334155">Portable tool calls for judges and agents</text>
<rect x="1014" y="430" width="250" height="90" rx="8" fill="#fff1f2" stroke="#e11d48" stroke-width="2"/>
<text x="1032" y="464" font-size="18" font-weight="700" fill="#111827">Alibaba Cloud runtime</text>
<text x="1032" y="492" font-size="13" fill="#334155">ECS or Function Compute + proof endpoint</text>
  </g>
  <g>
    <rect x="1014" y="542" width="250" height="42" rx="8" fill="#ffffff" stroke="#cbd5e1"/>
    <text x="1032" y="568" font-size="13" fill="#475569">Arrows show evidence and control flow.</text>
  </g>
  <text x="48" y="574" font-size="13" fill="#475569">Public proof links: src/server/agent/qwenClient.ts for Qwen Base URL, src/server/cloud/alibabaProof.ts for Alibaba Cloud proof endpoint.</text>
</svg>
